<svg width="32" height="32" viewBox="0 0 32 32" fill="none" xmlns="http://www.w3.org/2000/svg">
<path d="M4 19V8C4 7.46957 4.21071 6.96086 4.58579 6.58579C4.96086 6.21071 5.46957 6 6 6H26C26.5304 6 27.0391 6.21071 27.4142 6.58579C27.7893 6.96086 28 7.46957 28 8V19H4Z" fill="#F6B11C"/>
<path d="M6 24H26C26.5304 24 27.0391 23.7893 27.4142 23.4142C27.7893 23.0391 28 22.5304 28 22V8C28 7.46957 27.7893 6.96086 27.4142 6.58579C27.0391 6.21071 26.5304 6 26 6H6C5.46957 6 4.96086 6.21071 4.58579 6.58579C4.21071 6.96086 4 7.46957 4 8V22C4 22.5304 4.21071 23.0391 4.58579 23.4142C4.96086 23.7893 5.46957 24 6 24Z" stroke="#F6B11C" stroke-width="2" stroke-linecap="round" stroke-linejoin="round"/>
<path d="M20 28H12" stroke="#F6B11C" stroke-width="2" stroke-linecap="round" stroke-linejoin="round"/>
<path d="M4 19H28" stroke="#F6B11C" stroke-width="2" stroke-linecap="round" stroke-linejoin="round"/>
<path d="M16 24V28" stroke="#F6B11C" stroke-width="2" stroke-linecap="round" stroke-linejoin="round"/>
</svg>
