<svg width="32" height="32" viewBox="0 0 32 32" fill="none" xmlns="http://www.w3.org/2000/svg">
<path d="M16 18C17.5913 18 19.1174 17.3679 20.2426 16.2426C21.3679 15.1174 22 13.5913 22 12C22 10.4087 21.3679 8.88258 20.2426 7.75736C19.1174 6.63214 17.5913 6 16 6C14.4087 6 12.8826 6.63214 11.7574 7.75736C10.6321 8.88258 10 10.4087 10 12C10 13.5913 10.6321 15.1174 11.7574 16.2426C12.8826 17.3679 14.4087 18 16 18Z" fill="#3D85F9"/>
<path d="M16 22C21.523 22 26 17.523 26 12C26 6.477 21.523 2 16 2C10.477 2 6 6.477 6 12C6 17.523 10.477 22 16 22Z" stroke="#3D85F9" stroke-width="2" stroke-linecap="round" stroke-linejoin="round"/>
<path d="M16 18C17.5913 18 19.1174 17.3679 20.2426 16.2426C21.3679 15.1174 22 13.5913 22 12C22 10.4087 21.3679 8.88258 20.2426 7.75736C19.1174 6.63214 17.5913 6 16 6C14.4087 6 12.8826 6.63214 11.7574 7.75736C10.6321 8.88258 10 10.4087 10 12C10 13.5913 10.6321 15.1174 11.7574 16.2426C12.8826 17.3679 14.4087 18 16 18Z" stroke="#3D85F9" stroke-width="2" stroke-linecap="round" stroke-linejoin="round"/>
<path d="M22 20V30L16 27L10 30V20" stroke="#3D85F9" stroke-width="2" stroke-linecap="round" stroke-linejoin="round"/>
</svg>
