<svg width="32" height="32" viewBox="0 0 32 32" fill="none" xmlns="http://www.w3.org/2000/svg">
<path d="M11 20C12.7239 20 14.3772 19.3152 15.5962 18.0962C16.8152 16.8772 17.5 15.2239 17.5 13.5C17.5 11.7761 16.8152 10.1228 15.5962 8.90381C14.3772 7.68482 12.7239 7 11 7C9.27609 7 7.62279 7.68482 6.40381 8.90381C5.18482 10.1228 4.5 11.7761 4.5 13.5C4.5 15.2239 5.18482 16.8772 6.40381 18.0962C7.62279 19.3152 9.27609 20 11 20Z" fill="#F13D23"/>
<path d="M11 20C12.7239 20 14.3772 19.3152 15.5962 18.0962C16.8152 16.8772 17.5 15.2239 17.5 13.5C17.5 11.7761 16.8152 10.1228 15.5962 8.90381C14.3772 7.68482 12.7239 7 11 7C9.27609 7 7.62279 7.68482 6.40381 8.90381C5.18482 10.1228 4.5 11.7761 4.5 13.5C4.5 15.2239 5.18482 16.8772 6.40381 18.0962C7.62279 19.3152 9.27609 20 11 20Z" stroke="#F13D23" stroke-width="2" stroke-miterlimit="10"/>
<path d="M19.425 7.237C19.9994 7.08137 20.5918 7.00169 21.187 7C22.9109 7 24.5642 7.68482 25.7832 8.90381C27.0022 10.1228 27.687 11.7761 27.687 13.5C27.687 15.2239 27.0022 16.8772 25.7832 18.0962C24.5642 19.3152 22.9109 20 21.187 20" stroke="#F13D23" stroke-width="2" stroke-linecap="round" stroke-linejoin="round"/>
<path d="M2 24.6754C3.01493 23.2312 4.36255 22.0524 5.92901 21.2386C7.49547 20.4248 9.23477 20 11 20C12.7652 20 14.5045 20.4248 16.071 21.2386C17.6375 22.0524 18.9851 23.2312 20 24.6754" stroke="#F13D23" stroke-width="2" stroke-linecap="round" stroke-linejoin="round"/>
<path d="M21.1885 20C22.9539 19.9989 24.6935 20.4232 26.2602 21.2369C27.8268 22.0507 29.1743 23.23 30.1885 24.675" stroke="#F13D23" stroke-width="2" stroke-linecap="round" stroke-linejoin="round"/>
</svg>
