<svg width="32" height="32" viewBox="0 0 32 32" fill="none" xmlns="http://www.w3.org/2000/svg">
<path d="M21.3004 8.90039H23.5754C24.8318 8.90039 25.8504 9.91894 25.8504 11.1754V18.0361V24.8254C25.8504 26.0818 24.8318 27.1004 23.5754 27.1004H9.92539C8.66894 27.1004 7.65039 26.0818 7.65039 24.8254V11.1754C7.65039 9.91894 8.66894 8.90039 9.92539 8.90039H12.2179" stroke="#090023" stroke-width="2"/>
<path fill-rule="evenodd" clip-rule="evenodd" d="M16.5554 5H16.9454C18.0442 5 18.944 5.85203 19.0202 6.93145L19.0254 7.08H20.7316C21.0457 7.08 21.3004 7.33464 21.3004 7.64875V9.63125C21.3004 9.94536 21.0457 10.2 20.7316 10.2H12.7691C12.455 10.2 12.2004 9.94536 12.2004 9.63125V7.64875C12.2004 7.33464 12.455 7.08 12.7691 7.08H14.4754C14.4754 5.93125 15.4066 5 16.5554 5Z" stroke="#090023" stroke-width="2" stroke-linejoin="round"/>
<path d="M12.2004 16.05H21.3004" stroke="#F00109" stroke-width="2" stroke-linecap="round" stroke-linejoin="round"/>
<path d="M12.2004 21.25H17.4004" stroke="#F00109" stroke-width="2" stroke-linecap="round" stroke-linejoin="round"/>
</svg>
