<svg width="32" height="32" viewBox="0 0 32 32" fill="none" xmlns="http://www.w3.org/2000/svg">
<path d="M16 3C13.3478 3 10.8043 4.05357 8.92893 5.92893C7.05357 7.8043 6 10.3478 6 13C6 22 16 29 16 29C16 29 26 22 26 13C26 10.3478 24.9464 7.8043 23.0711 5.92893C21.1957 4.05357 18.6522 3 16 3ZM16 17C14.9391 17 13.9217 16.5786 13.1716 15.8284C12.4214 15.0783 12 14.0609 12 13C12 11.9391 12.4214 10.9217 13.1716 10.1716C13.9217 9.42143 14.9391 9 16 9C17.0609 9 18.0783 9.42143 18.8284 10.1716C19.5786 10.9217 20 11.9391 20 13C20 14.0609 19.5786 15.0783 18.8284 15.8284C18.0783 16.5786 17.0609 17 16 17Z" fill="#24C8A4"/>
<path d="M7 29H25" stroke="#24C8A4" stroke-width="2" stroke-linecap="round" stroke-linejoin="round"/>
<path d="M16 17C17.0609 17 18.0783 16.5786 18.8284 15.8284C19.5786 15.0783 20 14.0609 20 13C20 11.9391 19.5786 10.9217 18.8284 10.1716C18.0783 9.42143 17.0609 9 16 9C14.9391 9 13.9217 9.42143 13.1716 10.1716C12.4214 10.9217 12 11.9391 12 13C12 14.0609 12.4214 15.0783 13.1716 15.8284C13.9217 16.5786 14.9391 17 16 17Z" stroke="#24C8A4" stroke-width="2" stroke-linecap="round" stroke-linejoin="round"/>
<path d="M26 13C26 22 16 29 16 29C16 29 6 22 6 13C6 10.3478 7.05357 7.8043 8.92893 5.92893C10.8043 4.05357 13.3478 3 16 3C18.6522 3 21.1957 4.05357 23.0711 5.92893C24.9464 7.8043 26 10.3478 26 13Z" stroke="#24C8A4" stroke-width="2" stroke-linecap="round" stroke-linejoin="round"/>
</svg>
