<svg width="24" height="24" viewBox="0 0 24 24" fill="none" xmlns="http://www.w3.org/2000/svg">
<path d="M6.15043 7.5375C7.45521 7.5375 8.51293 6.47977 8.51293 5.175C8.51293 3.87023 7.45521 2.8125 6.15043 2.8125C4.84566 2.8125 3.78793 3.87023 3.78793 5.175C3.78793 6.47977 4.84566 7.5375 6.15043 7.5375Z" stroke="#090023" stroke-width="1.5"/>
<path fill-rule="evenodd" clip-rule="evenodd" d="M7.25773 9.63745L11.2134 11.6121L11.4379 13.102L8.17175 12.7606H3.48242L3.62355 9.95517L7.25773 9.63745Z" stroke="#090023" stroke-width="1.5"/>
<path d="M10.0508 9.08166V7.12539C10.0508 6.58691 10.4873 6.15039 11.0258 6.15039H20.7758C21.3143 6.15039 21.7508 6.58691 21.7508 7.12539V15.4129C21.7508 15.9514 21.3143 16.3879 20.7758 16.3879H11.0258C10.4873 16.3879 10.0508 15.9514 10.0508 15.4129V14.9716" stroke="#090023" stroke-width="1.5" stroke-linecap="round" stroke-linejoin="round"/>
<path d="M15.9004 16.3875C15.9004 16.6477 15.9004 18.2727 15.9004 21.2625" stroke="#090023" stroke-width="1.5" stroke-linecap="round"/>
<path d="M15.0469 16.6816C14.9168 16.907 14.1043 18.3143 12.6094 20.9035" stroke="#090023" stroke-width="1.5" stroke-linecap="round"/>
<path d="M16.7539 16.6816C16.884 16.907 17.6965 18.3143 19.1914 20.9035" stroke="#090023" stroke-width="1.5" stroke-linecap="round"/>
<path fill-rule="evenodd" clip-rule="evenodd" d="M14.4316 9.37012L17.2666 11.1834L15.0321 13.0672L14.4316 9.37012Z" stroke="#FF1E50" stroke-width="1.3"/>
</svg>
