<svg width="21" height="18" viewBox="0 0 21 18" fill="none" xmlns="http://www.w3.org/2000/svg">
<g clip-path="url(#clip0_1_536)">
<path fill-rule="evenodd" clip-rule="evenodd" d="M17.9811 0.449854C16.8655 1.57485 15.9074 2.8011 14.9099 3.9936C13.9124 5.1861 13.0461 6.3111 12.088 7.44735C11.1299 8.5836 10.3555 9.56235 9.463 10.6199C8.5705 11.6774 7.59925 13.0499 6.58862 14.2199L6.27362 14.5574C5.81425 13.9611 5.43362 13.3311 5.03987 12.7011C4.4755 11.6999 3.93737 10.6986 3.30737 9.6861C3.19167 9.51195 3.0369 9.35915 2.85199 9.23651C2.66707 9.11386 2.45566 9.0238 2.22995 8.97151C2.00424 8.91922 1.76868 8.90574 1.53687 8.93184C1.30505 8.95795 1.08155 9.02312 0.879249 9.1236C0.476816 9.33246 0.184979 9.66733 0.0654988 10.0574C-0.0566954 10.459 0.00432207 10.8854 0.236124 11.2499C0.708624 12.0599 1.168 12.8699 1.66675 13.6799C2.1655 14.4899 2.50675 15.0974 2.97925 15.7724L3.30737 16.2224C3.50487 16.503 3.73342 16.7667 3.98987 17.0099C4.43336 17.5017 5.05778 17.8506 5.76175 17.9999C6.16382 18.0731 6.58169 18.0498 6.96925 17.9324C7.45704 17.794 7.90459 17.5677 8.28175 17.2686C8.95262 16.7177 9.54717 16.1024 10.0536 15.4349L10.9067 14.3886C13.033 11.6324 15.2774 8.95485 17.4692 6.25485C18.2699 5.2761 19.0705 4.29735 19.8974 3.3411L20.5011 2.6886C20.8359 2.38404 21.0235 1.98203 21.0261 1.5636C21.0318 1.35541 20.9882 1.14838 20.898 0.955028C20.8078 0.761671 20.6728 0.585994 20.5011 0.438603C20.3287 0.292009 20.1237 0.176627 19.8982 0.0993212C19.6727 0.0220151 19.4314 -0.0156372 19.1886 -0.0113965C18.9633 -0.0153807 18.7397 0.0228212 18.5335 0.100543C18.3272 0.178266 18.1432 0.293636 17.9942 0.438603" fill="#F00109"/>
</g>
<defs>
<clipPath id="clip0_1_536">
<rect width="21" height="18" fill="white"/>
</clipPath>
</defs>
</svg>
