<svg width="24" height="24" viewBox="0 0 24 24" fill="none" xmlns="http://www.w3.org/2000/svg">
<path d="M13.0271 2C14.1525 2.00186 14.7228 2.00781 15.2156 2.02248L15.4097 2.02883C15.6339 2.0368 15.8551 2.0468 16.1218 2.0593C17.1859 2.10846 17.9118 2.2768 18.5493 2.5243C19.2084 2.77846 19.7651 3.1218 20.3209 3.67763C20.8759 4.23346 21.2193 4.7918 21.4743 5.4493C21.7209 6.08596 21.8893 6.81263 21.9393 7.8768C21.9512 8.14346 21.9608 8.36466 21.9687 8.58891L21.975 8.78299C21.9896 9.27574 21.9963 9.84612 21.9984 10.9715L21.9992 11.7172C21.9993 11.8083 21.9993 11.9023 21.9993 11.9993L21.9992 12.2814L21.9986 13.0271C21.9967 14.1525 21.9908 14.7228 21.9761 15.2156L21.9697 15.4097C21.9618 15.6339 21.9518 15.8551 21.9393 16.1218C21.8901 17.1859 21.7209 17.9118 21.4743 18.5493C21.2201 19.2084 20.8759 19.7651 20.3209 20.3209C19.7651 20.8759 19.2059 21.2193 18.5493 21.4743C17.9118 21.7209 17.1859 21.8893 16.1218 21.9393C15.8551 21.9512 15.6339 21.9608 15.4097 21.9687L15.2156 21.975C14.7228 21.9896 14.1525 21.9963 13.0271 21.9984L12.2814 21.9992C12.1903 21.9993 12.0963 21.9993 11.9993 21.9993L11.7172 21.9992L10.9715 21.9986C9.84612 21.9967 9.27574 21.9908 8.78299 21.9761L8.58891 21.9697C8.36466 21.9618 8.14346 21.9518 7.8768 21.9393C6.81263 21.8901 6.08763 21.7209 5.4493 21.4743C4.79096 21.2201 4.23346 20.8759 3.67763 20.3209C3.1218 19.7651 2.7793 19.2059 2.5243 18.5493C2.2768 17.9118 2.1093 17.1859 2.0593 16.1218C2.04742 15.8551 2.03773 15.6339 2.02988 15.4097L2.02359 15.2156C2.00896 14.7228 2.00229 14.1525 2.00013 13.0271L2 10.9715C2.00186 9.84612 2.00781 9.27574 2.02248 8.78299L2.02883 8.58891C2.0368 8.36466 2.0468 8.14346 2.0593 7.8768C2.10846 6.8118 2.2768 6.0868 2.5243 5.4493C2.77846 4.79096 3.1218 4.23346 3.67763 3.67763C4.23346 3.1218 4.7918 2.7793 5.4493 2.5243C6.0868 2.2768 6.8118 2.1093 7.8768 2.0593C8.14346 2.04742 8.36466 2.03773 8.58891 2.02988L8.78299 2.02359C9.27574 2.00896 9.84612 2.00229 10.9715 2.00013L13.0271 2ZM11.9993 6.9993C9.2364 6.9993 6.9993 9.23883 6.9993 11.9993C6.9993 14.7622 9.23883 16.9993 11.9993 16.9993C14.7622 16.9993 16.9993 14.7597 16.9993 11.9993C16.9993 9.2364 14.7597 6.9993 11.9993 6.9993ZM11.9993 8.9993C13.6562 8.9993 14.9993 10.3419 14.9993 11.9993C14.9993 13.6562 13.6566 14.9993 11.9993 14.9993C10.3424 14.9993 8.9993 13.6566 8.9993 11.9993C8.9993 10.3424 10.3419 8.9993 11.9993 8.9993ZM17.2493 5.4993C16.56 5.4993 15.9993 6.0592 15.9993 6.74845C15.9993 7.43769 16.5592 7.99846 17.2493 7.99846C17.9385 7.99846 18.4993 7.43856 18.4993 6.74845C18.4993 6.0592 17.9376 5.49843 17.2493 5.4993Z" fill="#1C1C1D"/>
</svg>
