<svg width="24" height="24" viewBox="0 0 24 24" fill="none" xmlns="http://www.w3.org/2000/svg">
<path fill-rule="evenodd" clip-rule="evenodd" d="M2.8125 4.95C2.8125 4.56685 2.9678 4.21998 3.21889 3.96889C3.46998 3.7178 3.81685 3.5625 4.2 3.5625L19.8 3.5625C20.1831 3.5625 20.53 3.7178 20.7811 3.96889C21.0322 4.21998 21.1875 4.56685 21.1875 4.95V15.675C21.1875 16.0581 21.0322 16.405 20.7811 16.6561C20.53 16.9072 20.1831 17.0625 19.8 17.0625H4.2C3.81685 17.0625 3.46998 16.9072 3.21889 16.6561C2.9678 16.405 2.8125 16.0581 2.8125 15.675L2.8125 4.95Z" stroke="#090023" stroke-width="1.5"/>
<path fill-rule="evenodd" clip-rule="evenodd" d="M10.68 8.62122L13.2335 9.99735L11.1845 11.7248L10.68 8.62122Z" stroke="#FF1E50" stroke-width="1.5"/>
<path d="M2.73749 20.0625L15.2234 20.0766M17.5286 20.0766L21.2625 20.0625" stroke="#090023" stroke-width="1.5" stroke-linecap="round" stroke-linejoin="round"/>
<path d="M16.3875 20.9621C16.8845 20.9621 17.2875 20.5592 17.2875 20.0621C17.2875 19.5651 16.8845 19.1621 16.3875 19.1621C15.8904 19.1621 15.4875 19.5651 15.4875 20.0621C15.4875 20.5592 15.8904 20.9621 16.3875 20.9621Z" stroke="#FF1E50" stroke-width="1.5"/>
</svg>
