<svg width="32" height="32" viewBox="0 0 32 32" fill="none" xmlns="http://www.w3.org/2000/svg">
<path fill-rule="evenodd" clip-rule="evenodd" d="M3.75 6.60097C3.75 6.09011 3.95707 5.62761 4.29185 5.29283C4.62664 4.95804 5.08914 4.75097 5.6 4.75097H26.4C26.9109 4.75097 27.3734 4.95804 27.7081 5.29283C28.0429 5.62761 28.25 6.09011 28.25 6.60097V20.901C28.25 21.4118 28.0429 21.8743 27.7081 22.2091C27.3734 22.5439 26.9109 22.751 26.4 22.751H5.6C5.08914 22.751 4.62664 22.5439 4.29185 22.2091C3.95707 21.8743 3.75 21.4118 3.75 20.901L3.75 6.60097Z" stroke="#090023" stroke-width="2"/>
<path fill-rule="evenodd" clip-rule="evenodd" d="M14.4736 11.3232L17.6601 13.5152L14.6952 15.5098L14.4736 11.3232Z" stroke="#F00109" stroke-width="2"/>
<path d="M3.65039 26.751L20.2983 26.7692M23.3718 26.7692L28.3504 26.751" stroke="#090023" stroke-width="2" stroke-linecap="round" stroke-linejoin="round"/>
<path d="M21.8504 27.9498C22.5131 27.9498 23.0504 27.4125 23.0504 26.7498C23.0504 26.0871 22.5131 25.5498 21.8504 25.5498C21.1876 25.5498 20.6504 26.0871 20.6504 26.7498C20.6504 27.4125 21.1876 27.9498 21.8504 27.9498Z" stroke="#F00109" stroke-width="2"/>
</svg>
