<svg width="60" height="60" viewBox="0 0 60 60" fill="none" xmlns="http://www.w3.org/2000/svg">
<g opacity="0.5">
<path d="M11.8225 42.9594L11.8225 42.9594C9.33889 40.3231 8 37.379 8 32.5255C8 24.1485 13.8006 16.5605 22.3888 12.6874L24.0969 15.3234C20.1377 17.5564 17.7108 20.1033 16.1903 22.5742C14.612 25.139 14.0274 27.5945 13.6967 29.4679L13.521 30.4632L14.4188 29.9989C15.6543 29.3599 17.3099 29.1204 18.9656 29.2739L18.9656 29.2739C23.2309 29.6691 26.578 33.1669 26.578 37.4995C26.578 42.0559 22.8843 45.7495 18.3279 45.7495C15.7894 45.7495 13.3538 44.5851 11.8225 42.9594ZM49.0969 15.3234C45.1377 17.5564 42.7108 20.1033 41.1903 22.5742C39.612 25.139 39.0274 27.5945 38.6966 29.4678L38.5209 30.4632L39.4187 29.9989C40.6542 29.3599 42.3099 29.1204 43.9656 29.2739L43.9656 29.2739C48.231 29.6691 51.578 33.1669 51.578 37.4995C51.578 42.0559 47.8844 45.7495 43.328 45.7495C40.7894 45.7495 38.3539 44.5851 36.8224 42.9594C34.339 40.3231 33 37.379 33 32.5255C33 24.1485 38.8006 16.5605 47.3888 12.6874L49.0969 15.3234Z" stroke="#868687"/>
</g>
</svg>
