<svg width="100" height="100" viewBox="0 0 100 100" fill="none" xmlns="http://www.w3.org/2000/svg">
<g clip-path="url(#clip0_1_227)">
<g opacity="0.5">
<g opacity="0.2">
<path d="M81.4911 59.3754C81.4911 66.1994 75.9592 71.7313 69.1352 71.7313C62.3113 71.7313 56.7793 66.1994 56.7793 59.3754C56.7793 52.5515 62.3113 47.0195 69.1352 47.0195C75.9592 47.0195 81.4911 52.5515 81.4911 59.3754Z" fill="#2CE6A4"/>
<path d="M69.8617 29.5763C69.8617 35.9989 64.6552 41.2054 58.2327 41.2054C51.81 41.2054 46.6035 35.9989 46.6035 29.5763C46.6035 23.1538 51.81 17.9473 58.2327 17.9473C64.6552 17.9473 69.8617 23.1538 69.8617 29.5763Z" fill="#FFDA49"/>
<path d="M31.3404 78.9999C42.9813 78.9999 52.4181 69.5631 52.4181 57.9222C52.4181 46.2813 42.9813 36.8445 31.3404 36.8445C19.6995 36.8445 10.2627 46.2813 10.2627 57.9222C10.2627 69.5631 19.6995 78.9999 31.3404 78.9999Z" fill="#8244FD"/>
</g>
<path d="M45.8334 54C55.9585 54 64.1666 45.0457 64.1666 34C64.1666 22.9543 55.9585 14 45.8334 14C35.7081 14 27.5 22.9543 27.5 34C27.5 45.0457 35.7081 54 45.8334 54Z" fill="#A3C2FF"/>
</g>
<g clip-path="url(#clip1_1_227)">
<path d="M70.7803 31.345V23.5992C70.7803 23.1225 70.3628 22.7054 69.8856 22.7054H48.0548V18.5939C48.0548 18.1173 47.6373 17.7002 47.1601 17.7002C46.683 17.7002 46.2654 18.1173 46.2654 18.5939V22.7054H24.4943C24.0171 22.7054 23.5996 23.1225 23.5996 23.5992V31.345C23.5996 31.5833 23.5996 32.1196 23.5996 32.5367V53.6885C23.5996 54.1652 24.0171 54.5823 24.4943 54.5823H38.3324L33.7396 73.8277C33.6203 74.3044 33.9185 74.781 34.3957 74.9002C34.4553 74.9002 34.515 74.9002 34.6343 74.9002C35.0518 74.9002 35.4097 74.6023 35.529 74.2448L40.2411 54.5823H46.3847V69.0014C46.3847 69.4781 46.8023 69.8952 47.2794 69.8952C47.7566 69.8952 48.1741 69.4781 48.1741 69.0014V54.5823H54.1388L59.0299 74.2448C59.1492 74.6619 59.507 74.9002 59.9246 74.9002C59.9842 74.9002 60.0439 74.9002 60.1632 74.9002C60.6403 74.781 60.9386 74.3044 60.8193 73.8277L56.0475 54.5823H70.0049C70.4821 54.5823 70.8996 54.1652 70.8996 53.6885C70.8996 53.6885 70.7803 31.6429 70.7803 31.345ZM68.9909 24.731V31.0471H25.389V24.731H68.9909ZM25.389 52.7948V32.8346H68.9909V52.7948H25.389Z" fill="black"/>
<path d="M24.6375 62.5312C24.6975 61.9105 24.6052 61.2846 24.3684 60.7063C23.991 59.7742 23.3219 58.9847 22.458 58.4522C22.5292 58.2196 22.5787 57.9811 22.606 57.7396C22.7336 56.8372 22.5525 55.9186 22.0911 55.1287C21.6297 54.3388 20.9144 53.7226 20.0578 53.3771C19.357 53.0897 18.5986 52.9637 17.8407 53.009L17.9079 54.1082C18.4967 54.0715 19.0861 54.1694 19.63 54.3943C20.2606 54.6512 20.7862 55.1075 21.1239 55.6913C21.4615 56.275 21.592 56.9529 21.4947 57.6178C21.4842 57.7175 21.4681 57.8166 21.4463 57.9145L21.2014 57.8138C19.0058 56.9503 17.7034 57.7026 17.2272 58.6932C16.7617 59.6441 17.0361 60.8122 17.8245 61.2572C18.4057 61.5803 19.3233 61.5009 20.222 61.0506C20.9462 60.6876 21.5571 60.1385 21.9898 59.4613C23.7254 60.6771 23.5343 62.2849 23.5235 62.375L24.6375 62.5312ZM21.0185 58.9289C20.6887 59.4102 20.242 59.8027 19.7188 60.0706C19.0488 60.4069 18.5429 60.3884 18.3734 60.2983C18.1259 60.1633 18.0075 59.6282 18.2308 59.17C18.578 58.4548 19.5089 58.333 20.7817 58.8362L21.0185 58.9289Z" fill="#FF693D"/>
<path d="M24.7 25.3C24.7 24.7478 25.1477 24.3 25.7 24.3H68.8C69.3523 24.3 69.8 24.7478 69.8 25.3V33.1H24.7V25.3Z" fill="#FF1E50"/>
<path d="M69.81 19.4991L70.4063 14.3531L70.4907 13.6102C70.4933 13.3099 70.377 13.0208 70.1673 12.8063C69.9574 12.5918 69.6714 12.4693 69.3714 12.4655C69.0737 12.4708 68.7893 12.5899 68.5766 12.7984C68.3639 13.0069 68.2388 13.289 68.2272 13.5867L67.631 18.7327L67.5432 19.4748C67.5412 19.7755 67.6581 20.0647 67.8684 20.2794C68.0788 20.494 68.3655 20.6166 68.6658 20.6204C68.9634 20.6151 69.2478 20.4959 69.4605 20.2874C69.6733 20.079 69.7983 19.7969 69.81 19.4991Z" fill="#FFBD00"/>
<path d="M75.8949 26.3256L80.9378 25.0928L81.6473 24.9177C81.9367 24.8407 82.1846 24.6532 82.3376 24.3955C82.4905 24.1378 82.5367 23.8304 82.4661 23.5392C82.387 23.251 82.1994 23.0047 81.9427 22.852C81.686 22.6994 81.3802 22.6523 81.0894 22.7205L76.0456 23.9566L75.3328 24.1308C75.0439 24.2085 74.7968 24.3965 74.6443 24.6543C74.4919 24.9121 74.4464 25.2194 74.5175 25.5103C74.5973 25.7981 74.7853 26.0437 75.0421 26.1957C75.2989 26.3477 75.6045 26.3942 75.8949 26.3256Z" fill="#FFBD00"/>
<path d="M73.5331 22.4134L76.7752 18.3458L77.2374 17.7645C77.6059 17.299 77.3495 16.4763 76.8597 16.2077C76.6009 16.0598 76.2954 16.0166 76.0056 16.0869C75.7158 16.1572 75.4638 16.3357 75.3011 16.5858L72.0624 20.6543L71.6001 21.2357C71.2284 21.7002 71.4871 22.5271 71.9736 22.7948C72.2326 22.9419 72.5378 22.9846 72.8275 22.9144C73.117 22.8441 73.3689 22.6662 73.5322 22.4167L73.5331 22.4134Z" fill="#FFBD00"/>
<path d="M38 53C38 51.636 38.5268 50.3279 39.4645 49.3635C40.4021 48.399 41.6739 47.8571 43 47.8571C42.1159 47.8571 41.2681 47.4959 40.643 46.8529C40.0179 46.21 39.6667 45.3379 39.6667 44.4286C39.6667 43.5193 40.0179 42.6472 40.643 42.0042C41.2681 41.3612 42.1159 41 43 41" stroke="black" stroke-width="1.5" stroke-linecap="round" stroke-linejoin="round"/>
<path d="M56 53C56 51.636 55.4732 50.3279 54.5355 49.3635C53.5979 48.399 52.3261 47.8571 51 47.8571C51.8841 47.8571 52.7319 47.4959 53.357 46.8529C53.9821 46.21 54.3333 45.3379 54.3333 44.4286C54.3333 43.5193 53.9821 42.6472 53.357 42.0042C52.7319 41.3612 51.8841 41 51 41" stroke="black" stroke-width="1.5" stroke-linecap="round" stroke-linejoin="round"/>
<path d="M47 45C49.7614 45 52 42.7614 52 40C52 37.2386 49.7614 35 47 35C44.2386 35 42 37.2386 42 40C42 42.7614 44.2386 45 47 45Z" fill="#FFBD00"/>
<path d="M54 53C54 50.8783 53.2625 48.8434 51.9497 47.3431C50.637 45.8429 48.8565 45 47 45C45.1435 45 43.363 45.8429 42.0503 47.3431C40.7375 48.8434 40 50.8783 40 53" fill="#FFBD00"/>
</g>
</g>
<defs>
<clipPath id="clip0_1_227">
<rect width="100" height="100" fill="white"/>
</clipPath>
<clipPath id="clip1_1_227">
<rect width="66" height="66" fill="white" transform="translate(17 10)"/>
</clipPath>
</defs>
</svg>
