<svg width="23" height="22" viewBox="0 0 23 22" fill="none" xmlns="http://www.w3.org/2000/svg">
<path d="M19.5403 15.0517V18.2931C19.5403 18.7743 19.1682 19.1736 18.6882 19.2076C18.2873 19.2359 17.9602 19.25 17.707 19.25C9.60673 19.25 3.04028 12.6836 3.04028 4.58333C3.04028 4.33007 3.05445 4.00296 3.08277 3.60204C3.11671 3.12206 3.51598 2.75 3.99715 2.75H7.23871C7.474 2.75 7.67106 2.92822 7.69469 3.16232C7.7159 3.37248 7.73561 3.54121 7.75385 3.66852C7.93927 4.96349 8.31802 6.19608 8.85992 7.33611C8.94691 7.5191 8.89018 7.73812 8.72531 7.85589L6.74687 9.26915C7.95134 12.0827 10.2076 14.339 13.0211 15.5435L14.4318 13.5684C14.5511 13.4016 14.7727 13.3442 14.9579 13.4321C16.0978 13.9736 17.3303 14.3519 18.6251 14.5369C18.7516 14.555 18.9192 14.5745 19.128 14.5956C19.3621 14.6193 19.5403 14.8164 19.5403 15.0517Z" fill="#1C1C1D"/>
</svg>
