<svg width="100" height="100" viewBox="0 0 100 100" fill="none" xmlns="http://www.w3.org/2000/svg">
<g clip-path="url(#clip0_1_206)">
<g opacity="0.5">
<g opacity="0.2">
<path d="M81.4911 59.3754C81.4911 66.1994 75.9592 71.7313 69.1352 71.7313C62.3113 71.7313 56.7793 66.1994 56.7793 59.3754C56.7793 52.5515 62.3113 47.0195 69.1352 47.0195C75.9592 47.0195 81.4911 52.5515 81.4911 59.3754Z" fill="#2CE6A4"/>
<path d="M69.8617 29.5763C69.8617 35.9989 64.6552 41.2054 58.2327 41.2054C51.81 41.2054 46.6035 35.9989 46.6035 29.5763C46.6035 23.1538 51.81 17.9473 58.2327 17.9473C64.6552 17.9473 69.8617 23.1538 69.8617 29.5763Z" fill="#FFDA49"/>
<path d="M31.3404 78.9999C42.9813 78.9999 52.4181 69.5631 52.4181 57.9222C52.4181 46.2813 42.9813 36.8445 31.3404 36.8445C19.6995 36.8445 10.2627 46.2813 10.2627 57.9222C10.2627 69.5631 19.6995 78.9999 31.3404 78.9999Z" fill="#8244FD"/>
</g>
<path d="M45.8334 54C55.9585 54 64.1666 45.0457 64.1666 34C64.1666 22.9543 55.9585 14 45.8334 14C35.7081 14 27.5 22.9543 27.5 34C27.5 45.0457 35.7081 54 45.8334 54Z" fill="#A3C2FF"/>
</g>
<mask id="mask0_1_206" style="mask-type:luminance" maskUnits="userSpaceOnUse" x="0" y="25" width="100" height="50">
<path d="M100 25H0V74.3671H100V25Z" fill="white"/>
</mask>
<g mask="url(#mask0_1_206)">
<path d="M53.4686 63.8239C47.1289 63.8239 39.3346 62.1024 30.5853 56.5935C30.4765 56.525 30.386 56.4313 30.3211 56.3204C30.2563 56.2096 30.2192 56.0847 30.2129 55.9564L29.5718 40.5107C29.5675 40.4045 29.5849 40.2983 29.6228 40.1989C29.6607 40.0996 29.7185 40.0089 29.7924 39.9322C29.866 39.8553 29.9542 39.7938 30.0518 39.7513C30.1494 39.7086 30.2546 39.686 30.3611 39.6843L74.0285 39.3779C74.2335 39.3778 74.4306 39.457 74.5785 39.5988C74.7263 39.7407 74.8133 39.9343 74.8214 40.1389L75.3901 55.1989C75.3947 55.309 75.3763 55.4189 75.3358 55.5215C75.2956 55.624 75.2342 55.7171 75.1557 55.7946C74.9696 55.9736 70.5708 60.2363 62.8419 62.4914C59.7968 63.3789 56.6406 63.8275 53.4686 63.8239ZM31.7815 55.4778C44.8814 63.5485 55.599 62.946 62.3247 60.9868C66.5394 59.7927 70.45 57.7124 73.794 54.8857L73.27 40.9618L31.1919 41.2613L31.7815 55.4778Z" fill="#00202B"/>
<path d="M16.7543 35.498L49.5763 25.0791C49.929 24.9657 50.307 24.955 50.6656 25.0482L86.142 34.1483C86.5397 34.2501 86.896 34.4729 87.1613 34.7858C87.4265 35.0988 87.5878 35.4865 87.6227 35.8951C87.6575 36.3037 87.5643 36.713 87.3558 37.0663C87.1474 37.4195 86.834 37.6994 86.4592 37.8668L54.0992 52.3279C53.6286 52.539 53.0939 52.5575 52.6099 52.3794L16.6818 39.2337C16.2953 39.092 15.9626 38.8336 15.7301 38.4941C15.4976 38.1547 15.3771 37.7512 15.385 37.3401C15.3931 36.929 15.5292 36.5305 15.7746 36.2002C16.02 35.8701 16.3625 35.6245 16.7543 35.498Z" fill="#FF1E50"/>
<path d="M51.7442 36.858C54.2916 36.858 56.3567 36.3045 56.3567 35.6219C56.3567 34.9392 54.2916 34.3857 51.7442 34.3857C49.1967 34.3857 47.1317 34.9392 47.1317 35.6219C47.1317 36.3045 49.1967 36.858 51.7442 36.858Z" fill="white"/>
<path d="M88.2103 53.2368L86.6933 53.2126C86.7726 48.048 83.3322 42.9108 78.5129 41.0137C76.2451 40.1522 73.7799 39.948 71.4011 40.425C71.2571 42.7607 70.4086 44.998 68.9672 46.8429C67.9124 48.1685 66.7472 48.9467 65.52 49.1497C63.9928 49.4011 62.1208 48.5437 61.7624 46.8704C61.5244 45.7686 61.9726 44.5876 63.0861 43.3517C64.929 41.358 67.2989 39.9257 69.9221 39.2199C69.876 37.8155 69.5231 36.4383 68.8879 35.1846C67.9986 33.5067 66.6383 32.1243 64.974 31.2069C63.3097 30.2896 61.4136 29.8771 59.5182 30.02C56.4638 30.3057 53.2199 32.7744 53.4543 35.8732L51.941 35.9868C51.7996 34.1242 52.5821 32.2993 54.1472 30.8497C55.5908 29.5236 57.4254 28.6999 59.3768 28.5015C61.5736 28.3347 63.7714 28.8121 65.7004 29.8751C67.6294 30.938 69.2057 32.5405 70.2358 34.4857C70.9317 35.853 71.3333 37.3508 71.4149 38.8825C73.9864 38.4175 76.6361 38.6626 79.0783 39.5918C84.4664 41.723 88.3101 47.4592 88.2103 53.2368ZM69.8497 40.8175C67.6911 41.4815 65.7467 42.7037 64.2133 44.3604C63.4446 45.2143 63.1171 45.9476 63.2447 46.5468C63.4171 47.3387 64.4547 47.7829 65.2717 47.6451C66.0888 47.5074 66.9747 46.9151 67.7917 45.8926C68.939 44.4251 69.6551 42.668 69.8601 40.8175H69.8497Z" fill="#FFBD00"/>
<path d="M99.1789 59.0277L86.7684 65.277L87.2408 55.4436C87.1598 55.1305 87.1916 54.799 87.3307 54.507C87.4698 54.2152 87.7073 53.9813 88.0015 53.8468C88.2958 53.7122 88.6282 53.6852 88.9404 53.7706C89.2525 53.8561 89.5247 54.0484 89.709 54.3141L99.1789 59.0277Z" fill="#FF693D"/>
<path d="M87.8411 55.2304C88.8026 55.2304 89.5821 54.452 89.5821 53.4917C89.5821 52.5314 88.8026 51.7529 87.8411 51.7529C86.8797 51.7529 86.1003 52.5314 86.1003 53.4917C86.1003 54.452 86.8797 55.2304 87.8411 55.2304Z" fill="#FF1E50"/>
<path d="M94.3425 64.7552C97.9768 63.1556 100.484 60.8631 99.9417 59.6346C99.3997 58.406 96.0142 58.7067 92.3797 60.3063C88.7454 61.9057 86.2385 64.1982 86.7806 65.4267C87.3225 66.6553 90.7082 66.3546 94.3425 64.7552Z" fill="#CC3D1B"/>
<path d="M6.71892 40.6176L1.58239 41.4645L0.841247 41.5884C0.550404 41.6689 0.3033 41.8612 0.154055 42.1231C0.00480992 42.3852 -0.0344391 42.6955 0.0448951 42.9863C0.132313 43.2724 0.32605 43.5142 0.586316 43.6621C0.846584 43.8099 1.15366 43.8528 1.44453 43.7817L6.58101 42.9346L7.32219 42.8142C7.61329 42.733 7.8604 42.5401 8.0096 42.2776C8.15879 42.0149 8.19797 41.7041 8.11854 41.4128C8.03112 41.1269 7.83739 40.8851 7.57712 40.7371C7.31686 40.5892 7.00978 40.5464 6.71892 40.6176Z" fill="#FFBD00"/>
<path d="M11.6309 32.8505L9.04537 28.3194L8.67998 27.6824C8.52552 27.4241 8.27587 27.2365 7.98457 27.1599C7.69328 27.0834 7.38355 27.1238 7.12178 27.2726C6.86519 27.4287 6.6791 27.678 6.60262 27.9683C6.52613 28.2584 6.56516 28.5669 6.71152 28.829L9.30046 33.3601L9.66591 34.0005C9.82092 34.2581 10.0708 34.4449 10.3621 34.5209C10.6533 34.5969 10.9627 34.5559 11.2241 34.4067C11.4801 34.2501 11.6654 34.0005 11.7413 33.7104C11.8171 33.4202 11.7775 33.1122 11.6309 32.8505Z" fill="#FFBD00"/>
<path d="M8.50458 36.2146L3.67833 34.2073L2.98886 33.9214C2.43729 33.6942 1.71333 34.1693 1.58924 34.7168C1.51794 35.0078 1.56071 35.3149 1.70875 35.5754C1.85678 35.836 2.09892 36.03 2.38558 36.1181L7.21183 38.122L7.90131 38.4078C8.45288 38.6385 9.18025 38.1599 9.30435 37.6159C9.37478 37.3249 9.33167 37.0182 9.18374 36.7578C9.03582 36.4975 8.79422 36.3034 8.50804 36.2146H8.50458Z" fill="#FFBD00"/>
</g>
</g>
<defs>
<clipPath id="clip0_1_206">
<rect width="100" height="100" fill="white"/>
</clipPath>
</defs>
</svg>
