<svg width="100" height="100" viewBox="0 0 100 100" fill="none" xmlns="http://www.w3.org/2000/svg">
<g clip-path="url(#clip0_1_246)">
<g opacity="0.5">
<g opacity="0.2">
<path d="M81.4911 59.3754C81.4911 66.1994 75.9592 71.7313 69.1352 71.7313C62.3113 71.7313 56.7793 66.1994 56.7793 59.3754C56.7793 52.5515 62.3113 47.0195 69.1352 47.0195C75.9592 47.0195 81.4911 52.5515 81.4911 59.3754Z" fill="#2CE6A4"/>
<path d="M69.8617 29.5763C69.8617 35.9989 64.6552 41.2054 58.2327 41.2054C51.81 41.2054 46.6035 35.9989 46.6035 29.5763C46.6035 23.1538 51.81 17.9473 58.2327 17.9473C64.6552 17.9473 69.8617 23.1538 69.8617 29.5763Z" fill="#FFDA49"/>
<path d="M31.3404 78.9999C42.9813 78.9999 52.4181 69.5631 52.4181 57.9222C52.4181 46.2813 42.9813 36.8445 31.3404 36.8445C19.6995 36.8445 10.2627 46.2813 10.2627 57.9222C10.2627 69.5631 19.6995 78.9999 31.3404 78.9999Z" fill="#8244FD"/>
</g>
<path d="M45.8334 54C55.9585 54 64.1666 45.0457 64.1666 34C64.1666 22.9543 55.9585 14 45.8334 14C35.7081 14 27.5 22.9543 27.5 34C27.5 45.0457 35.7081 54 45.8334 54Z" fill="#A3C2FF"/>
</g>
<mask id="mask0_1_246" style="mask-type:luminance" maskUnits="userSpaceOnUse" x="15" y="22" width="70" height="56">
<path d="M85 22H15V78H85V22Z" fill="white"/>
</mask>
<g mask="url(#mask0_1_246)">
<path d="M57.3631 29.2179C57.3631 29.2179 48.8711 27.8936 48.8711 23.5549C48.8711 19.2162 54.998 24.8793 57.3631 29.2179Z" fill="#68D787"/>
<path d="M51.134 44.5696C51.629 45.1228 52.2935 45.5023 53.0269 45.6509C53.7604 45.7995 54.5231 45.7091 55.1997 45.3934C55.9729 45.0608 56.8375 44.9945 57.6537 45.2053C60.1131 45.7801 59.4108 47.6237 61.5176 46.9323C63.6245 46.241 72.1165 36.3373 66.3825 31.3947C60.6485 26.4522 58.356 33.4555 56.9649 33.225C55.5738 32.9946 45.6018 24.9424 47.6306 36.7664C47.6306 36.8432 47.6602 36.9174 47.6764 36.9916C47.8486 37.7544 48.9572 42.0507 51.134 44.5696Z" fill="#FF1E50"/>
<path d="M66.2618 35.0111C66.1854 35.0109 66.11 34.993 66.0418 34.959C65.9736 34.9249 65.9144 34.8757 65.869 34.8151C65.0968 33.7953 64.3084 33.2576 63.52 33.2258C63.2147 33.2268 62.9126 33.2875 62.6313 33.4044C62.35 33.5212 62.0951 33.6919 61.8813 33.9065C61.7934 34.0009 61.6713 34.0574 61.5414 34.0638C61.4115 34.0703 61.2842 34.0261 61.1871 33.941C61.0904 33.8556 61.0321 33.7359 61.0251 33.6083C61.018 33.4806 61.0627 33.3554 61.1494 33.2602C61.4591 32.9398 61.8326 32.6856 62.2464 32.5133C62.6602 32.3411 63.1057 32.2545 63.555 32.259C64.6555 32.3067 65.7076 32.9768 66.6574 34.2456C66.6959 34.2967 66.7238 34.3548 66.7395 34.4166C66.7552 34.4783 66.7584 34.5425 66.749 34.6055C66.7395 34.6684 66.7174 34.7289 66.6842 34.7835C66.6509 34.8381 66.6071 34.8857 66.5552 34.9237C66.4693 34.9828 66.3666 35.0134 66.2618 35.0111Z" fill="white"/>
<path d="M60.1646 35.0638C60.4038 35.0638 60.5978 34.8729 60.5978 34.6374C60.5978 34.4018 60.4038 34.2109 60.1646 34.2109C59.9253 34.2109 59.7314 34.4018 59.7314 34.6374C59.7314 34.8729 59.9253 35.0638 60.1646 35.0638Z" fill="white"/>
<path d="M50.8515 65.8422C67.292 65.1032 55.1729 45.3249 68.3414 45.5448C103.321 46.1328 74.3445 76.9484 61.4315 77.9232C45.6368 79.1125 43.9094 66.1521 50.8515 65.8422Z" fill="#FFF0CB"/>
<path d="M71.1213 71.1052C71.0613 70.4845 71.1536 69.8586 71.3904 69.2803C71.7678 68.3482 72.4369 67.5587 73.3008 67.0262C73.2296 66.7936 73.1801 66.5551 73.1528 66.3136C73.0252 65.4112 73.2063 64.4926 73.6677 63.7027C74.1291 62.9128 74.8444 62.2966 75.701 61.9511C76.4018 61.6637 77.1602 61.5377 77.9181 61.583L77.8509 62.6822C77.2621 62.6455 76.6727 62.7434 76.1288 62.9683C75.4982 63.2252 74.9726 63.6815 74.6349 64.2653C74.2973 64.849 74.1668 65.5269 74.2641 66.1918C74.2746 66.2915 74.2907 66.3906 74.3125 66.4885L74.5574 66.3878C76.753 65.5243 78.0554 66.2766 78.5316 67.2672C78.9971 68.2181 78.7227 69.3862 77.9343 69.8312C77.3531 70.1543 76.4355 70.0749 75.5368 69.6246C74.8126 69.2616 74.2017 68.7125 73.769 68.0353C72.0334 69.2511 72.2245 70.8589 72.2353 70.949L71.1213 71.1052ZM74.7403 67.5029C75.0701 67.9842 75.5168 68.3767 76.04 68.6446C76.71 68.9809 77.2159 68.9624 77.3854 68.8723C77.6329 68.7373 77.7513 68.2022 77.528 67.744C77.1808 67.0288 76.2499 66.907 74.9771 67.4102L74.7403 67.5029Z" fill="#FF693D"/>
<path d="M21.7626 40.6738C21.6198 40.6738 21.483 40.618 21.382 40.5187C21.2811 40.4193 21.2244 40.2846 21.2244 40.1441L21.2002 33.2944C21.2002 33.1539 21.2569 33.0191 21.3578 32.9198C21.4587 32.8204 21.5956 32.7646 21.7383 32.7646C21.8811 32.7646 22.0179 32.8204 22.1189 32.9198C22.2198 33.0191 22.2765 33.1539 22.2765 33.2944L22.3007 40.1441C22.3007 40.2846 22.244 40.4193 22.1431 40.5187C22.0422 40.618 21.9053 40.6738 21.7626 40.6738Z" fill="#00202B"/>
<path d="M17.9307 37.2961C17.788 37.2961 17.6511 37.2403 17.5502 37.1409C17.4493 37.0416 17.3926 36.9068 17.3926 36.7663C17.3926 36.6258 17.4493 36.4911 17.5502 36.3917C17.6511 36.2924 17.788 36.2366 17.9307 36.2366L24.9752 36.2021C25.1179 36.2021 25.2548 36.258 25.3557 36.3573C25.4566 36.4567 25.5133 36.5914 25.5133 36.7319C25.5133 36.8724 25.4566 37.0071 25.3557 37.1065C25.2548 37.2058 25.1179 37.2616 24.9752 37.2616L17.9307 37.2961Z" fill="#00202B"/>
<path d="M17.0154 45.6908C16.4811 45.6901 15.9689 45.4809 15.5911 45.109C15.2133 44.7371 15.0007 44.2329 15 43.7069C15.0007 43.1812 15.2134 42.6773 15.5912 42.3058C15.9691 41.9343 16.4813 41.7256 17.0154 41.7256C17.5489 41.7263 18.0604 41.9353 18.4377 42.3067C18.815 42.6781 19.0273 43.1817 19.028 43.7069C19.0273 44.2324 18.8151 44.7362 18.4379 45.108C18.0607 45.4799 17.5492 45.6894 17.0154 45.6908ZM17.0154 42.7772C16.7618 42.7772 16.5185 42.8762 16.339 43.0524C16.1594 43.2287 16.0582 43.4679 16.0575 43.7175C16.0582 43.9674 16.1593 44.2068 16.3388 44.3835C16.5183 44.5602 16.7615 44.6598 17.0154 44.6605C17.2687 44.6591 17.5113 44.5592 17.6902 44.3826C17.8691 44.206 17.9699 43.9669 17.9706 43.7175C17.972 43.593 17.9484 43.4695 17.901 43.354C17.8537 43.2385 17.7836 43.1335 17.6948 43.0448C17.606 42.9562 17.5002 42.8857 17.3836 42.8375C17.267 42.7893 17.1418 42.7643 17.0154 42.7639V42.7772Z" fill="#68D787"/>
<path d="M47.407 55.8933L67.1195 55.7476C69.9394 55.7476 72.2319 53.2339 72.2319 50.1322C72.2319 47.0491 69.9717 44.5433 67.1679 44.5168L47.1406 44.4082L47.407 55.8933Z" fill="#FECB04"/>
<path d="M27.1172 44.8983L52.1197 45.0255C54.3019 45.0493 56.0617 47.4093 56.0617 50.323C56.0617 53.2498 54.2831 55.6205 52.0874 55.6205L27.1172 55.7476C27.1172 55.7476 31.6915 50.119 27.1172 44.8877" fill="#FFF0CB"/>
<path d="M23.252 55.9625C23.1178 55.9625 22.9891 55.9101 22.8943 55.8167C22.7994 55.7233 22.7461 55.5966 22.7461 55.4646C22.7461 55.1997 22.9371 55.2712 23.217 55.2712L51.5802 54.9481C54.1176 54.9481 56.1814 52.7946 56.1814 50.1459C56.1814 47.4971 54.1338 45.3781 51.6071 45.3437L23.3542 45.1026C23.2205 45.1012 23.0928 45.0478 22.999 44.954C22.9053 44.8602 22.853 44.7336 22.8537 44.602C22.8552 44.4709 22.9091 44.3456 23.0038 44.2533C23.0985 44.1611 23.2264 44.1093 23.3596 44.1094L51.6125 44.3477C54.68 44.3742 57.177 46.9753 57.177 50.1459C57.177 53.3164 54.6584 55.944 51.5668 55.944H23.2385L23.252 55.9625Z" fill="#FECB04"/>
<path d="M53.6012 51.2852H32.5703V52.1222H53.6012V51.2852Z" fill="#FECB04"/>
<path d="M47.0928 66.8117L66.808 66.666C69.6279 66.666 71.9204 64.1523 71.9204 61.0533C71.9204 57.9701 69.6602 55.4618 66.8591 55.4379L46.8291 55.3293L47.0928 66.8117Z" fill="#FECB04"/>
<path d="M26.7988 55.8166L51.7986 55.9463C53.9835 55.9702 55.7433 58.3302 55.7433 61.2439C55.7433 64.1707 53.962 66.5414 51.7663 66.5414L26.7988 66.6685C26.7988 66.6685 31.3731 61.0373 26.7988 55.8086" fill="#FFF0CB"/>
<path d="M22.9221 66.8809C22.7887 66.8809 22.6607 66.8287 22.5663 66.7358C22.472 66.6429 22.4189 66.5169 22.4189 66.3856C22.4189 66.254 22.4719 66.1277 22.5662 66.0344C22.6604 65.9411 22.7884 65.8883 22.9221 65.8876H51.2504C53.7878 65.8876 55.8516 63.7342 55.8516 61.0854C55.8516 58.4367 53.8066 56.3017 51.2773 56.2806L23.0244 56.0422C22.9579 56.0415 22.8923 56.0279 22.8312 56.0022C22.7701 55.9766 22.7147 55.9393 22.6682 55.8926C22.6218 55.8458 22.5851 55.7906 22.5603 55.7299C22.5355 55.6692 22.5232 55.6043 22.5239 55.5389C22.5239 55.274 22.7203 55.2422 22.9975 55.2422L25.7017 55.3932L51.2934 55.2873C54.3609 55.3138 56.8552 57.9148 56.8552 61.0854C56.8552 64.256 54.3555 66.8676 51.2638 66.8676H22.9329L22.9221 66.8809Z" fill="#FECB04"/>
<path d="M52.2321 58.8125H31.2012V59.6495H52.2321V58.8125Z" fill="#FECB04"/>
<path d="M66.4148 56.1746L22.5366 56.0342C22.4721 56.0342 22.4082 56.0217 22.3486 55.9973C22.289 55.9729 22.2349 55.9371 22.1894 55.8921C22.1439 55.847 22.1078 55.7936 22.0834 55.7348C22.0589 55.676 22.0465 55.613 22.0469 55.5495C22.0469 55.486 22.0597 55.4231 22.0844 55.3644C22.1092 55.3057 22.1455 55.2525 22.1913 55.2077C22.237 55.1629 22.2913 55.1274 22.3511 55.1034C22.4108 55.0793 22.4747 55.0671 22.5393 55.0674L66.4201 55.2078C66.4847 55.2078 66.5486 55.2204 66.6082 55.2447C66.6677 55.2691 66.7219 55.3049 66.7674 55.3499C66.8129 55.395 66.8489 55.4484 66.8734 55.5072C66.8978 55.566 66.9102 55.629 66.9098 55.6925C66.9095 55.7562 66.8964 55.8191 66.8714 55.8778C66.8463 55.9365 66.8097 55.9897 66.7637 56.0345C66.7177 56.0793 66.6633 56.1147 66.6034 56.1387C66.5435 56.1628 66.4794 56.175 66.4148 56.1746Z" fill="#00202B"/>
<path d="M47.4401 48.0664H35.3721V48.9034H47.4401V48.0664Z" fill="#FECB04"/>
<path d="M46.5299 62.0176H34.4619V62.8546H46.5299V62.0176Z" fill="#FECB04"/>
<path d="M56.6611 31.6727H56.6208C56.4818 31.6599 56.3534 31.5944 56.2625 31.4902C56.1716 31.3859 56.1255 31.251 56.1338 31.1138C56.2515 29.8919 56.5227 28.689 56.941 27.5327C57.8693 25.0588 59.3627 23.7529 61.2812 23.7529C61.4239 23.7529 61.5608 23.8088 61.6617 23.9081C61.7626 24.0074 61.8193 24.1422 61.8193 24.2827C61.8193 24.4232 61.7626 24.5579 61.6617 24.6573C61.5608 24.7566 61.4239 24.8124 61.2812 24.8124C57.7267 24.8124 57.1912 31.1483 57.1858 31.2118C57.1691 31.3378 57.1068 31.4537 57.0105 31.5383C56.9142 31.6229 56.7902 31.6706 56.6611 31.6727Z" fill="#00202B"/>
</g>
</g>
<defs>
<clipPath id="clip0_1_246">
<rect width="100" height="100" fill="white"/>
</clipPath>
</defs>
</svg>
