<svg width="24" height="24" viewBox="0 0 24 24" fill="none" xmlns="http://www.w3.org/2000/svg">
<path d="M15.975 6.67505H17.6812C18.6236 6.67505 19.3875 7.43896 19.3875 8.3813V13.5268V18.6188C19.3875 19.5611 18.6236 20.325 17.6812 20.325H7.44374C6.5014 20.325 5.73749 19.5611 5.73749 18.6188V8.3813C5.73749 7.43896 6.5014 6.67505 7.44374 6.67505H9.16312" stroke="#090023" stroke-width="1.5"/>
<path fill-rule="evenodd" clip-rule="evenodd" d="M12.4158 3.75H12.7083C13.5325 3.75 14.2073 4.38902 14.2644 5.19859L14.2683 5.31H15.548C15.7836 5.31 15.9746 5.50098 15.9746 5.73656V7.22344C15.9746 7.45902 15.7836 7.65 15.548 7.65H9.57616C9.34058 7.65 9.1496 7.45902 9.1496 7.22344V5.73656C9.1496 5.50098 9.34058 5.31 9.57616 5.31H10.8558C10.8558 4.44844 11.5543 3.75 12.4158 3.75Z" stroke="#090023" stroke-width="1.5" stroke-linejoin="round"/>
<path d="M9.1496 12.0371H15.9746" stroke="#FF1E50" stroke-width="1.5" stroke-linecap="round" stroke-linejoin="round"/>
<path d="M9.1496 15.9375H13.0496" stroke="#FF1E50" stroke-width="1.5" stroke-linecap="round" stroke-linejoin="round"/>
</svg>
