<svg width="1440" height="1075" viewBox="0 0 1440 1075" fill="none" xmlns="http://www.w3.org/2000/svg">
<rect y="42" width="1440" height="1005" fill="#FFF2D8"/>
<g clip-path="url(#clip0_1_58)">
<path d="M1720 0H-280V42H1720V0Z" fill="#F6F6F7"/>
<path d="M1720 42.0004V9.56707C1720 9.56707 1573.33 8.16707 1496.81 2.56707C1427.16 -1.49439 1357.23 -0.518577 1287.78 5.48373C1229.31 10.0337 1093.33 22.9837 978.055 22.9837C767.222 22.8671 692.639 7.93373 482.222 8.16707C282.639 8.16707 102.5 21.5837 -3.8889 22.8671C-110.278 24.2671 -280 22.8671 -280 22.8671V42.0004H1720Z" fill="#FFF2D8"/>
</g>
<g clip-path="url(#clip1_1_58)">
<path d="M-280 1075H1720V1033H-280V1075Z" fill="white"/>
<path d="M-280 1033V1065.43C-280 1065.43 -133.333 1066.83 -56.8056 1072.43C12.8411 1076.49 82.7746 1075.52 152.222 1069.52C210.694 1064.97 346.667 1052.02 461.945 1052.02C672.778 1052.13 747.361 1067.07 957.778 1066.83C1157.36 1066.83 1337.5 1053.42 1443.89 1052.13C1550.28 1050.73 1720 1052.13 1720 1052.13V1033H-280Z" fill="#FFF2D8"/>
</g>
<defs>
<clipPath id="clip0_1_58">
<rect width="2000" height="42" fill="white" transform="translate(-280)"/>
</clipPath>
<clipPath id="clip1_1_58">
<rect width="2000" height="42" fill="white" transform="matrix(-1 0 0 -1 1720 1075)"/>
</clipPath>
</defs>
</svg>
