<svg width="607" height="330" viewBox="0 0 607 330" fill="none" xmlns="http://www.w3.org/2000/svg">
<mask id="mask0_1_893" style="mask-type:alpha" maskUnits="userSpaceOnUse" x="0" y="0" width="607" height="330">
<rect width="607" height="330" rx="16" fill="#FFDA54"/>
</mask>
<g mask="url(#mask0_1_893)">
<path opacity="0.2" fill-rule="evenodd" clip-rule="evenodd" d="M614.509 -20.4777C652.36 -20.5302 700.722 -40.1812 724.88 -11.0091C750.564 20.0059 709.513 67.8679 719.902 106.79C729.289 141.962 783.487 158.624 779.823 194.845C776.283 229.839 735.273 248.374 703.964 264.333C676.357 278.406 644.786 272.545 614.509 279.114C572.165 288.3 532.197 325.608 491.622 310.398C450.446 294.962 422.04 248.97 417.348 205.204C412.876 163.485 452.693 132.449 468.375 93.5376C482.459 58.5892 474.668 12.4629 504.36 -10.7029C534.163 -33.9554 576.724 -20.4252 614.509 -20.4777Z" fill="#FF693D"/>
</g>
</svg>
