<svg width="203" height="30" viewBox="0 0 203 30" fill="none" xmlns="http://www.w3.org/2000/svg">
<path fill-rule="evenodd" clip-rule="evenodd" d="M37.9132 6.07738C31.3826 6.35211 10.2587 8.59501 8.80662 9.16817C7.45488 9.70106 7.41965 13.2971 8.75945 13.9769C9.30874 14.2555 17.4359 14.0226 26.8205 13.4597C60.8678 11.4174 73.9929 11.5437 108.366 14.2453C113.62 14.6582 126.248 15.5376 136.428 16.2C159.339 17.6905 173.613 19.2734 183.229 21.3908C189.716 22.819 190.731 22.8766 191.496 21.8645C192.163 20.9842 192.217 20.3345 191.728 19.125C191.077 17.5169 185.882 15.8858 177.159 14.5508C174.291 14.1119 173.763 13.7984 174.028 12.694C174.67 10.0192 173.005 8.60448 168.348 7.86869C159.799 6.51633 120.668 5.5279 82.1213 5.68896C60.7621 5.77817 40.8687 5.95264 37.9132 6.07738Z" fill="#FDD100"/>
</svg>
