<svg width="169" height="25" viewBox="0 0 169 25" fill="none" xmlns="http://www.w3.org/2000/svg">
<path fill-rule="evenodd" clip-rule="evenodd" d="M31.5632 5.06446C26.1264 5.29341 8.54046 7.16249 7.33162 7.64012C6.20628 8.0842 6.17695 11.0809 7.29235 11.6474C7.74964 11.8796 14.5156 11.6855 22.3284 11.2164C50.6732 9.51446 61.6 9.61973 90.2162 11.871C94.5903 12.2151 105.103 12.948 113.578 13.5C132.652 14.7421 144.535 16.0612 152.54 17.8256C157.941 19.0158 158.786 19.0638 159.423 18.2204C159.978 17.4868 160.023 16.9454 159.616 15.9375C159.074 14.5974 154.749 13.2381 147.487 12.1256C145.099 11.7599 144.66 11.4987 144.88 10.5783C145.415 8.34933 144.029 7.17038 140.152 6.55722C133.034 5.43025 100.458 4.60657 68.367 4.74078C50.5852 4.81512 34.0237 4.96051 31.5632 5.06446Z" fill="#FDD100"/>
</svg>
