<svg width="195" height="18" viewBox="0 0 195 18" fill="none" xmlns="http://www.w3.org/2000/svg">
<path fill-rule="evenodd" clip-rule="evenodd" d="M36.4188 3.6467C30.1455 3.81154 9.85405 5.15727 8.45923 5.50117C7.16076 5.82091 7.12692 7.97854 8.41392 8.38638C8.94157 8.55359 16.7485 8.41385 25.7632 8.07612C58.4687 6.8507 71.0766 6.92649 104.095 8.54743C109.142 8.79517 121.272 9.32285 131.051 9.72027C153.059 10.6146 166.771 11.5643 176.008 12.8347C182.239 13.6916 183.214 13.7262 183.949 13.119C184.59 12.5908 184.642 12.201 184.171 11.4753C183.546 10.5104 178.556 9.53175 170.177 8.73075C167.422 8.46738 166.915 8.27933 167.169 7.61664C167.786 6.0118 166.187 5.16296 161.713 4.72148C153.501 3.91006 115.912 3.31701 78.8846 3.41364C58.3672 3.46717 39.2578 3.57185 36.4188 3.6467Z" fill="#FDD100"/>
</svg>
