<svg width="203" height="30" viewBox="0 0 203 30" fill="none" xmlns="http://www.w3.org/2000/svg">
<path fill-rule="evenodd" clip-rule="evenodd" d="M37.9132 6.07726C31.3826 6.35199 10.2587 8.59489 8.80662 9.16805C7.45488 9.70094 7.41965 13.297 8.75945 13.9767C9.30874 14.2554 17.4359 14.0225 26.8205 13.4596C60.8678 11.4173 73.9929 11.5436 108.366 14.2452C113.62 14.658 126.248 15.5375 136.428 16.1999C159.339 17.6904 173.613 19.2733 183.229 21.3907C189.716 22.8188 190.731 22.8765 191.496 21.8644C192.163 20.9841 192.217 20.3344 191.728 19.1249C191.077 17.5167 185.882 15.8857 177.159 14.5507C174.291 14.1117 173.763 13.7983 174.028 12.6938C174.67 10.0191 173.005 8.60436 168.348 7.86857C159.799 6.5162 120.668 5.52778 82.1213 5.68883C60.7621 5.77805 40.8687 5.95252 37.9132 6.07726Z" fill="#FDD100"/>
</svg>
