<svg width="161" height="30" viewBox="0 0 161 30" fill="none" xmlns="http://www.w3.org/2000/svg">
<path fill-rule="evenodd" clip-rule="evenodd" d="M30.0691 6.07726C24.8897 6.35199 8.13619 8.59489 6.98456 9.16805C5.91249 9.70094 5.88455 13.297 6.94715 13.9767C7.3828 14.2554 13.8285 14.0225 21.2714 13.4596C48.2744 11.4173 58.684 11.5436 85.9456 14.2452C90.1126 14.658 100.128 15.5375 108.201 16.1999C126.372 17.6904 137.693 19.2733 145.32 21.3907C150.464 22.8188 151.269 22.8765 151.877 21.8644C152.405 20.9841 152.448 20.3344 152.06 19.1249C151.544 17.5167 147.423 15.8857 140.506 14.5507C138.231 14.1117 137.812 13.7983 138.022 12.6938C138.531 10.0191 137.211 8.60436 133.517 7.86857C126.737 6.5162 95.7022 5.52778 65.1307 5.68883C48.1906 5.77805 32.4131 5.95252 30.0691 6.07726Z" fill="#FDD100"/>
</svg>
