<svg width="229" height="30" viewBox="0 0 229 30" fill="none" xmlns="http://www.w3.org/2000/svg">
<path fill-rule="evenodd" clip-rule="evenodd" d="M42.7696 6.0775C35.4025 6.35224 11.573 8.59513 9.935 9.16829C8.41013 9.70118 8.37039 13.2972 9.88179 13.977C10.5014 14.2557 19.6695 14.0228 30.2561 13.4599C68.6641 11.4175 83.4703 11.5438 122.246 14.2454C128.173 14.6583 142.418 15.5378 153.902 16.2001C179.747 17.6907 195.85 19.2736 206.697 21.3909C214.015 22.8191 215.16 22.8767 216.024 21.8646C216.775 20.9843 216.836 20.3346 216.284 19.1251C215.55 17.517 209.69 15.8859 199.85 14.5509C196.614 14.112 196.018 13.7986 196.317 12.6941C197.041 10.0193 195.164 8.60461 189.91 7.86882C180.266 6.51645 136.123 5.52803 92.6397 5.68908C68.5449 5.77829 46.1035 5.95276 42.7696 6.0775Z" fill="#FDD100"/>
</svg>
