<svg width="226" height="30" viewBox="0 0 226 30" fill="none" xmlns="http://www.w3.org/2000/svg">
<path fill-rule="evenodd" clip-rule="evenodd" d="M42.2088 6.07738C34.9383 6.35212 11.421 8.59501 9.80441 9.16817C8.29952 9.70106 8.2603 13.2971 9.7519 13.9769C10.3634 14.2555 19.4114 14.0226 29.8592 13.4597C67.7641 11.4174 82.3763 11.5437 120.644 14.2453C126.494 14.6582 140.552 15.5376 151.885 16.2C177.392 17.6905 193.284 19.2734 203.989 21.3908C211.211 22.819 212.341 22.8766 213.193 21.8645C213.935 20.9842 213.995 20.3345 213.45 19.125C212.726 17.5169 206.942 15.8858 197.232 14.5508C194.038 14.1119 193.45 13.7984 193.745 12.694C194.46 10.0192 192.606 8.60448 187.422 7.86869C177.904 6.51633 134.34 5.5279 91.4256 5.68896C67.6464 5.77817 45.4991 5.95264 42.2088 6.07738Z" fill="#FDD100"/>
</svg>
