<svg width="168" height="30" viewBox="0 0 168 30" fill="none" xmlns="http://www.w3.org/2000/svg">
<path fill-rule="evenodd" clip-rule="evenodd" d="M31.3768 6.0775C25.9722 6.35224 8.49031 8.59513 7.28861 9.16829C6.16993 9.70118 6.14078 13.2972 7.24958 13.977C7.70417 14.2557 14.4301 14.0228 22.1966 13.4599C50.3737 11.4175 61.2359 11.5438 89.6827 14.2454C94.0309 14.6583 104.482 15.5378 112.906 16.2001C131.867 17.6907 143.68 19.2736 151.638 21.3909C157.007 22.8191 157.847 22.8767 158.48 21.8646C159.032 20.9843 159.077 20.3346 158.671 19.1251C158.133 17.517 153.834 15.8859 146.615 14.5509C144.241 14.112 143.804 13.7986 144.023 12.6941C144.554 10.0193 143.177 8.60461 139.323 7.86882C132.247 6.51645 99.8635 5.52803 67.9628 5.68908C50.2862 5.77829 33.8227 5.95276 31.3768 6.0775Z" fill="#FDD100"/>
</svg>
