<svg width="32" height="32" viewBox="0 0 32 32" fill="none" xmlns="http://www.w3.org/2000/svg">
<path d="M18.667 25.333C18.667 23.2113 17.8241 21.1764 16.3238 19.6762C14.8236 18.1759 12.7887 17.333 10.667 17.333C8.54526 17.333 6.51043 18.1759 5.01014 19.6762C3.50985 21.1764 2.66699 23.2113 2.66699 25.333" stroke="#1C1C1D" stroke-width="2" stroke-linecap="round" stroke-linejoin="round"/>
<path d="M10.6663 17.3337C13.6119 17.3337 15.9997 14.9458 15.9997 12.0003C15.9997 9.05481 13.6119 6.66699 10.6663 6.66699C7.72082 6.66699 5.33301 9.05481 5.33301 12.0003C5.33301 14.9458 7.72082 17.3337 10.6663 17.3337Z" stroke="#F00109" stroke-width="2" stroke-linecap="round" stroke-linejoin="round"/>
<path d="M29.333 25.3337C29.333 23.2119 28.4902 21.1771 26.9899 19.6768C25.4896 18.1765 23.4547 17.3337 21.333 17.3337C22.7475 17.3337 24.104 16.7718 25.1042 15.7716C26.1044 14.7714 26.6663 13.4148 26.6663 12.0003C26.6663 10.5858 26.1044 9.22928 25.1042 8.22909C24.104 7.2289 22.7475 6.66699 21.333 6.66699" stroke="#1C1C1D" stroke-width="2" stroke-linecap="round" stroke-linejoin="round"/>
</svg>
